# xmcd
#
# Track frame offsets:
#	150
#	13035
#	26856
#	38586
#	53991
#	67524
#	85281
#	102279
#	119576
#	134127
#	146346
#	159873
#	183545
#	194641
#	207291
#	219247
#	234907
#	240001
#	254154
#
# Disc length: 3537 seconds
#
# Revision: 0
# Processed by: cddbd v1.5.1PL0 Copyright (c) Steve Scherf et al.
# Submitted via: audiograbber 1.80
#
DISCID=090dcf13
DTITLE=Lockwood, Robert Jr - Ramblin' On My Mind
DYEAR=1900
DGENRE=
TTITLE0=Ramblin' On My Mind (take 2)
TTITLE1=Kind Hearted Woman
TTITLE2=Walkin' Blues (take 2)
TTITLE3=I'm A Steady Rollin' Man
TTITLE4=Sweet Home Chicago (take 3)
TTITLE5=Little Queen Of Spades
TTITLE6=Western Horizon
TTITLE7=She Is Little And Low
TTITLE8=Little Boy Blue (take 2)
TTITLE9=Lockwood's Boogie
TTITLE10=Take A Walk With Me (take 2)
TTITLE11=See See Rider
TTITLE12=Sweet Home Chicago (take 1)
TTITLE13=Ramblin' On My Mind (take 1)
TTITLE14=Walkin' Blues (take 1)
TTITLE15=Take A Walk With Me (take 1)
TTITLE16=Little Boy Blue (false start)
TTITLE17=Little Boy Blue (take 1)
TTITLE18=Sweet Home Chicago (take 2)
EXTD=
EXTT0=
EXTT1=
EXTT2=
EXTT3=
EXTT4=
EXTT5=
EXTT6=
EXTT7=
EXTT8=
EXTT9=
EXTT10=
EXTT11=
EXTT12=
EXTT13=
EXTT14=
EXTT15=
EXTT16=
EXTT17=
EXTT18=
PLAYORDER=
